<?xml version="1.0"?>
<svg width="1600" height="1200" xmlns="http://www.w3.org/2000/svg" xmlns:svg="http://www.w3.org/2000/svg">
 <desc>Created with Raphaël 2.0.1</desc>

 <g>
  <title>Layer 1</title>
  <rect id="svg_1" fill="#111111" height="1241.679048" width="1622.913622" y="-2.10697" x="-15.802451"/>
  <circle id="svg_66" opacity="0.01" stroke-width="2" fill="#5598fc" r="483.901215" cy="1343.790128" cx="950.481583"/>
  <circle id="svg_2" opacity="0.01" stroke-width="2" fill="#5598fc" r="133.852905" cy="476.293895" cx="1396.878391"/>
  <circle id="svg_3" opacity="0.01" stroke-width="2" fill="#5598fc" r="265.081268" cy="729.21313" cx="1071.980923"/>
  <circle id="svg_4" opacity="0.01" stroke-width="2" fill="#5598fc" r="488.169434" cy="459.432612" cx="183.653668"/>
  <circle id="svg_5" opacity="0.01" stroke-width="2" fill="#5598fc" r="115.480904" cy="607.811897" cx="1676.536972"/>
  <circle id="svg_6" opacity="0.01" stroke-width="2" fill="#5598fc" r="375.31311" cy="752.818925" cx="545.564772"/>
  <circle id="svg_7" opacity="0.01" stroke-width="2" fill="#5598fc" r="317.572632" cy="574.089332" cx="1010.29153"/>
  <circle id="svg_8" opacity="0.01" stroke-width="2" fill="#5598fc" r="349.067322" cy="442.57133" cx="1779.352626"/>
  <circle id="svg_9" opacity="0.01" stroke-width="2" fill="#5598fc" r="246.709305" cy="476.293895" cx="372.834472"/>
  <circle id="svg_10" opacity="0.01" stroke-width="2" fill="#5598fc" r="414.681549" cy="678.629283" cx="413.960734"/>
  <circle id="svg_11" opacity="0.01" stroke-width="2" fill="#5598fc" r="322.821686" cy="719.096361" cx="1446.229905"/>
  <circle id="svg_12" opacity="0.01" stroke-width="2" fill="#5598fc" r="493.418579" cy="634.789949" cx="611.366791"/>
  <circle id="svg_13" opacity="0.01" stroke-width="2" fill="#5598fc" r="375.31311" cy="594.322871" cx="171.315789"/>
  <circle id="svg_14" opacity="0.01" stroke-width="2" fill="#5598fc" r="125.979187" cy="756.191182" cx="1051.417792"/>
  <circle id="svg_15" opacity="0.01" stroke-width="2" fill="#5598fc" r="186.344223" cy="547.11128" cx="93.175892"/>
  <circle id="svg_16" opacity="0.01" stroke-width="2" fill="#5598fc" r="490.793945" cy="398.731996" cx="631.929922"/>
  <circle id="svg_17" opacity="0.01" stroke-width="2" fill="#5598fc" r="270.330414" cy="452.688099" cx="471.5375"/>
  <circle id="svg_18" opacity="0.01" stroke-width="2" fill="#5598fc" r="280.828674" cy="668.512513" cx="1220.035466"/>
  <circle id="svg_19" opacity="0.01" stroke-width="2" fill="#5598fc" r="343.818207" cy="577.461589" cx="-256.397334"/>
  <circle id="svg_20" opacity="0.01" stroke-width="2" fill="#5598fc" r="204.716187" cy="715.724104" cx="-71.329155"/>
  <circle id="svg_21" opacity="0.01" stroke-width="2" fill="#5598fc" r="320.197144" cy="391.987483" cx="689.506688"/>
  <circle id="svg_22" opacity="0.01" stroke-width="2" fill="#5598fc" r="317.572601" cy="570.717076" cx="603.141538"/>
  <circle id="svg_23" opacity="0.01" stroke-width="2" fill="#5598fc" r="165.347702" cy="365.009431" cx="60.274882"/>
  <circle id="svg_24" opacity="0.01" stroke-width="2" fill="#5598fc" r="178.47052" cy="698.862822" cx="434.523865"/>
  <circle id="svg_25" opacity="0.01" stroke-width="2" fill="#5598fc" r="454.050049" cy="678.629283" cx="265.906191"/>
  <circle id="svg_26" opacity="0.01" stroke-width="2" fill="#5598fc" r="123.354607" cy="456.060356" cx="1141.895568"/>
  <circle id="svg_27" opacity="0.01" stroke-width="2" fill="#5598fc" r="472.422028" cy="466.177125" cx="1738.226364"/>
  <circle id="svg_28" opacity="0.01" stroke-width="2" fill="#5598fc" r="438.302643" cy="621.300923" cx="549.677398"/>
  <circle id="svg_29" opacity="0.01" stroke-width="2" fill="#5598fc" r="223.088181" cy="658.395744" cx="130.189527"/>
  <circle id="svg_30" opacity="0.01" stroke-width="2" fill="#5598fc" r="448.800934" cy="577.461589" cx="574.353155"/>
  <circle id="svg_31" opacity="0.01" stroke-width="2" fill="#5598fc" r="333.320007" cy="405.476509" cx="409.848108"/>
  <circle id="svg_32" opacity="0.01" stroke-width="2" fill="#5598fc" r="244.084732" cy="526.877742" cx="1544.932934"/>
  <circle id="svg_33" opacity="0.01" stroke-width="2" fill="#5598fc" r="464.548401" cy="749.446669" cx="1610.734953"/>
  <circle id="svg_34" opacity="0.01" stroke-width="2" fill="#5598fc" r="406.807831" cy="381.870713" cx="899.250623"/>
  <circle id="svg_35" opacity="0.01" stroke-width="2" fill="#5598fc" r="417.306183" cy="402.104252" cx="1832.816767"/>
  <circle id="svg_36" opacity="0.01" stroke-width="2" fill="#5598fc" r="307.074402" cy="715.724104" cx="915.701128"/>
  <circle id="svg_37" opacity="0.01" stroke-width="2" fill="#5598fc" r="317.572571" cy="432.45456" cx="1799.915757"/>
  <circle id="svg_38" opacity="0.01" stroke-width="2" fill="#5598fc" r="349.067352" cy="601.067384" cx="438.636491"/>
  <circle id="svg_39" opacity="0.01" stroke-width="2" fill="#5598fc" r="133.852905" cy="435.826817" cx="878.687492"/>
  <circle id="svg_40" opacity="0.01" stroke-width="2" fill="#5598fc" r="296.57608" cy="671.88477" cx="981.503147"/>
  <circle id="svg_41" opacity="0.01" stroke-width="2" fill="#5598fc" r="254.583008" cy="671.88477" cx="1602.5097"/>
  <circle id="svg_42" opacity="0.01" stroke-width="2" fill="#5598fc" r="207.34079" cy="739.329899" cx="1088.431428"/>
  <circle id="svg_43" opacity="0.01" stroke-width="2" fill="#5598fc" r="267.70578" cy="486.410664" cx="459.199622"/>
  <circle id="svg_44" opacity="0.01" stroke-width="2" fill="#5598fc" r="209.965347" cy="624.673179" cx="1713.550607"/>
  <circle id="svg_45" opacity="0.01" stroke-width="2" fill="#5598fc" r="115.480888" cy="449.315843" cx="952.714764"/>
  <circle id="svg_46" opacity="0.01" stroke-width="2" fill="#5598fc" r="341.193726" cy="550.483537" cx="1071.980923"/>
  <circle id="svg_47" opacity="0.01" stroke-width="2" fill="#5598fc" r="186.344223" cy="631.417692" cx="-108.342791"/>
  <circle id="svg_48" opacity="0.01" stroke-width="2" fill="#5598fc" r="501.292267" cy="499.89969" cx="660.718305"/>
  <circle id="svg_49" opacity="0.01" stroke-width="2" fill="#5598fc" r="186.344223" cy="580.833845" cx="393.397603"/>
  <circle id="svg_50" opacity="0.01" stroke-width="2" fill="#5598fc" r="157.473969" cy="749.446669" cx="-367.438241"/>
  <circle id="svg_51" opacity="0.01" stroke-width="2" fill="#5598fc" r="233.586411" cy="580.833845" cx="335.820836"/>
  <circle id="svg_52" opacity="0.01" stroke-width="2" fill="#5598fc" r="498.667694" cy="776.424721" cx="352.271341"/>
  <circle id="svg_53" opacity="0.01" stroke-width="2" fill="#5598fc" r="469.797546" cy="762.935695" cx="870.46224"/>
  <circle id="svg_54" opacity="0.01" stroke-width="2" fill="#5598fc" r="456.674622" cy="634.789949" cx="101.401144"/>
  <circle id="svg_55" opacity="0.01" stroke-width="2" fill="#5598fc" r="359.565552" cy="658.395744" cx="1429.779401"/>
  <circle id="svg_56" opacity="0.01" stroke-width="2" fill="#5598fc" r="312.323364" cy="523.505485" cx="829.335978"/>
  <circle id="svg_57" opacity="0.01" stroke-width="2" fill="#5598fc" r="506.541321" cy="729.21313" cx="1211.810213"/>
  <circle id="svg_58" opacity="0.01" stroke-width="2" fill="#5598fc" r="456.67453" cy="682.001539" cx="1096.65668"/>
  <circle id="svg_59" opacity="0.01" stroke-width="2" fill="#5598fc" r="419.930664" cy="483.038408" cx="903.36325"/>
  <circle id="svg_60" opacity="0.01" stroke-width="2" fill="#5598fc" r="291.326904" cy="405.476509" cx="566.127903"/>
  <circle id="svg_61" opacity="0.01" stroke-width="2" fill="#5598fc" r="480.295746" cy="530.249998" cx="134.302154"/>
  <circle id="svg_62" opacity="0.01" stroke-width="2" fill="#5598fc" r="317.57251" cy="702.235078" cx="1022.629409"/>
  <circle id="svg_63" opacity="0.01" stroke-width="2" fill="#5598fc" r="385.811279" cy="489.78292" cx="1117.219811"/>
  <circle id="svg_64" opacity="0.01" stroke-width="2" fill="#5598fc" r="359.565613" cy="769.680208" cx="-318.086726"/>
  <circle id="svg_65" opacity="0.01" stroke-width="2" fill="#5598fc" r="338.569061" cy="574.089332" cx="1433.892027"/>
  <circle id="svg_67" opacity="0.01" stroke-width="2" fill="#5598fc" r="1089.810913" cy="899.949275" cx="2528.409635"/>
 </g>
</svg>